# MagicaVoxel @ Ephtracy

# group
g FreakingOutGuy_Idle_BigMouth

# material
mtllib FreakingOutGuy_Idle_BigMouth.mtl
usemtl palette

# normals
vn -1 0 0
vn 1 0 0
vn 0 0 1
vn 0 0 -1
vn 0 -1 0
vn 0 1 0

# texcoords
vt 0.00195313 0.5
vt 0.0449219 0.5
vt 0.216797 0.5
vt 0.876953 0.5

# verts
v -7.5 4 0.5
v -7.5 4 -1.5
v -7.5 12 0.5
v -7.5 12 -1.5
v -6.5 12 0.5
v -6.5 12 -1.5
v -6.5 13 0.5
v -6.5 13 -1.5
v -5.5 3 2.5
v -5.5 3 -3.5
v -5.5 4 3.5
v -5.5 4 2.5
v -5.5 4 -3.5
v -5.5 4 -4.5
v -5.5 12 0.5
v -5.5 12 -1.5
v -5.5 13 0.5
v -5.5 13 -1.5
v -5.5 19 3.5
v -5.5 19 2.5
v -5.5 19 -3.5
v -5.5 19 -4.5
v -5.5 20 2.5
v -5.5 20 -3.5
v -4.5 0 0.5
v -4.5 0 -1.5
v -4.5 3 3.5
v -4.5 3 2.5
v -4.5 3 0.5
v -4.5 3 -1.5
v -4.5 3 -3.5
v -4.5 3 -4.5
v -4.5 4 4.5
v -4.5 4 3.5
v -4.5 4 2.5
v -4.5 4 -3.5
v -4.5 4 -4.5
v -4.5 4 -5.5
v -4.5 19 4.5
v -4.5 19 3.5
v -4.5 19 2.5
v -4.5 19 -3.5
v -4.5 19 -4.5
v -4.5 19 -5.5
v -4.5 20 3.5
v -4.5 20 2.5
v -4.5 20 -3.5
v -4.5 20 -4.5
v -4.5 21 2.5
v -4.5 21 -3.5
v -3.5 3 4.5
v -3.5 3 3.5
v -3.5 3 -4.5
v -3.5 3 -5.5
v -3.5 4 4.5
v -3.5 4 3.5
v -3.5 4 -4.5
v -3.5 4 -5.5
v -3.5 14 5.5
v -3.5 14 4.5
v -3.5 15 5.5
v -3.5 15 4.5
v -3.5 18 5.5
v -3.5 18 4.5
v -3.5 19 4.5
v -3.5 19 3.5
v -3.5 19 -4.5
v -3.5 19 -5.5
v -3.5 20 4.5
v -3.5 20 3.5
v -3.5 20 2.5
v -3.5 20 -3.5
v -3.5 20 -4.5
v -3.5 20 -5.5
v -3.5 21 3.5
v -3.5 21 2.5
v -3.5 21 -3.5
v -3.5 21 -4.5
v -2.5 4 3.5
v -2.5 4 2.5
v -2.5 5 3.5
v -2.5 6 3.5
v -2.5 7 3.5
v -2.5 7 2.5
v -1.5 6 4.5
v -1.5 6 3.5
v -1.5 7 4.5
v -1.5 7 3.5
v -1.5 7 2.5
v -1.5 8 3.5
v -1.5 8 2.5
v 1.5 14 5.5
v 1.5 14 4.5
v 1.5 15 5.5
v 1.5 15 4.5
v 1.5 18 5.5
v 1.5 18 4.5
v 3.5 0 0.5
v 3.5 0 -1.5
v 3.5 3 0.5
v 3.5 3 -1.5
v 3.5 4 3.5
v 3.5 4 2.5
v 3.5 5 3.5
v 3.5 6 4.5
v 3.5 6 3.5
v 3.5 12 4.5
v 3.5 12 3.5
v 3.5 12 2.5
v 6.5 4 0.5
v 6.5 4 -1.5
v 6.5 12 0.5
v 6.5 12 -1.5
v -6.5 4 0.5
v -6.5 4 -1.5
v -6.5 12 0.5
v -6.5 12 -1.5
v -3.5 0 0.5
v -3.5 0 -1.5
v -3.5 3 0.5
v -3.5 3 -1.5
v -3.5 4 3.5
v -3.5 4 2.5
v -3.5 5 3.5
v -3.5 6 4.5
v -3.5 6 3.5
v -3.5 12 4.5
v -3.5 12 3.5
v -3.5 12 2.5
v -1.5 14 5.5
v -1.5 14 4.5
v -1.5 15 5.5
v -1.5 15 4.5
v -1.5 18 5.5
v -1.5 18 4.5
v 1.5 6 4.5
v 1.5 6 3.5
v 1.5 7 4.5
v 1.5 7 3.5
v 1.5 7 2.5
v 1.5 8 3.5
v 1.5 8 2.5
v 2.5 4 3.5
v 2.5 4 2.5
v 2.5 5 3.5
v 2.5 6 3.5
v 2.5 7 3.5
v 2.5 7 2.5
v 3.5 3 4.5
v 3.5 3 3.5
v 3.5 3 -4.5
v 3.5 3 -5.5
v 3.5 4 4.5
v 3.5 4 3.5
v 3.5 4 -4.5
v 3.5 4 -5.5
v 3.5 14 5.5
v 3.5 14 4.5
v 3.5 15 5.5
v 3.5 15 4.5
v 3.5 18 5.5
v 3.5 18 4.5
v 3.5 19 4.5
v 3.5 19 3.5
v 3.5 19 -4.5
v 3.5 19 -5.5
v 3.5 20 4.5
v 3.5 20 3.5
v 3.5 20 2.5
v 3.5 20 -3.5
v 3.5 20 -4.5
v 3.5 20 -5.5
v 3.5 21 3.5
v 3.5 21 2.5
v 3.5 21 -3.5
v 3.5 21 -4.5
v 4.5 0 0.5
v 4.5 0 -1.5
v 4.5 3 3.5
v 4.5 3 2.5
v 4.5 3 0.5
v 4.5 3 -1.5
v 4.5 3 -3.5
v 4.5 3 -4.5
v 4.5 4 4.5
v 4.5 4 3.5
v 4.5 4 2.5
v 4.5 4 -3.5
v 4.5 4 -4.5
v 4.5 4 -5.5
v 4.5 19 4.5
v 4.5 19 3.5
v 4.5 19 2.5
v 4.5 19 -3.5
v 4.5 19 -4.5
v 4.5 19 -5.5
v 4.5 20 3.5
v 4.5 20 2.5
v 4.5 20 -3.5
v 4.5 20 -4.5
v 4.5 21 2.5
v 4.5 21 -3.5
v 5.5 3 2.5
v 5.5 3 -3.5
v 5.5 4 3.5
v 5.5 4 2.5
v 5.5 4 -3.5
v 5.5 4 -4.5
v 5.5 12 0.5
v 5.5 12 -1.5
v 5.5 13 0.5
v 5.5 13 -1.5
v 5.5 19 3.5
v 5.5 19 2.5
v 5.5 19 -3.5
v 5.5 19 -4.5
v 5.5 20 2.5
v 5.5 20 -3.5
v 6.5 12 0.5
v 6.5 12 -1.5
v 6.5 13 0.5
v 6.5 13 -1.5
v 7.5 4 0.5
v 7.5 4 -1.5
v 7.5 12 0.5
v 7.5 12 -1.5
v -3.5 14 5.5
v -3.5 15 5.5
v -3.5 18 5.5
v -1.5 14 5.5
v -1.5 15 5.5
v -1.5 18 5.5
v 1.5 14 5.5
v 1.5 15 5.5
v 1.5 18 5.5
v 3.5 14 5.5
v 3.5 15 5.5
v 3.5 18 5.5
v -4.5 4 4.5
v -4.5 19 4.5
v -3.5 3 4.5
v -3.5 4 4.5
v -3.5 5 4.5
v -3.5 6 4.5
v -3.5 12 4.5
v -3.5 13 4.5
v -3.5 14 4.5
v -3.5 15 4.5
v -3.5 18 4.5
v -3.5 19 4.5
v -3.5 20 4.5
v -1.5 4 4.5
v -1.5 5 4.5
v -1.5 6 4.5
v -1.5 7 4.5
v -1.5 14 4.5
v -1.5 15 4.5
v -1.5 18 4.5
v 1.5 4 4.5
v 1.5 5 4.5
v 1.5 6 4.5
v 1.5 7 4.5
v 1.5 14 4.5
v 1.5 15 4.5
v 1.5 18 4.5
v 3.5 3 4.5
v 3.5 4 4.5
v 3.5 5 4.5
v 3.5 6 4.5
v 3.5 12 4.5
v 3.5 13 4.5
v 3.5 14 4.5
v 3.5 15 4.5
v 3.5 18 4.5
v 3.5 19 4.5
v 3.5 20 4.5
v 4.5 4 4.5
v 4.5 19 4.5
v -5.5 4 3.5
v -5.5 19 3.5
v -4.5 3 3.5
v -4.5 4 3.5
v -4.5 19 3.5
v -4.5 20 3.5
v -3.5 3 3.5
v -3.5 4 3.5
v -3.5 19 3.5
v -3.5 20 3.5
v -3.5 21 3.5
v -2.5 6 3.5
v -2.5 7 3.5
v -1.5 6 3.5
v -1.5 7 3.5
v -1.5 8 3.5
v 1.5 6 3.5
v 1.5 7 3.5
v 1.5 8 3.5
v 2.5 6 3.5
v 2.5 7 3.5
v 3.5 3 3.5
v 3.5 4 3.5
v 3.5 19 3.5
v 3.5 20 3.5
v 3.5 21 3.5
v 4.5 3 3.5
v 4.5 4 3.5
v 4.5 19 3.5
v 4.5 20 3.5
v 5.5 4 3.5
v 5.5 19 3.5
v -5.5 3 2.5
v -5.5 4 2.5
v -5.5 19 2.5
v -5.5 20 2.5
v -4.5 3 2.5
v -4.5 4 2.5
v -4.5 19 2.5
v -4.5 20 2.5
v -4.5 21 2.5
v -3.5 4 2.5
v -3.5 12 2.5
v -3.5 20 2.5
v -3.5 21 2.5
v -2.5 4 2.5
v -2.5 7 2.5
v -1.5 7 2.5
v -1.5 8 2.5
v 1.5 7 2.5
v 1.5 8 2.5
v 2.5 4 2.5
v 2.5 7 2.5
v 3.5 4 2.5
v 3.5 12 2.5
v 3.5 20 2.5
v 3.5 21 2.5
v 4.5 3 2.5
v 4.5 4 2.5
v 4.5 19 2.5
v 4.5 20 2.5
v 4.5 21 2.5
v 5.5 3 2.5
v 5.5 4 2.5
v 5.5 19 2.5
v 5.5 20 2.5
v -7.5 4 0.5
v -7.5 12 0.5
v -6.5 4 0.5
v -6.5 12 0.5
v -6.5 13 0.5
v -5.5 12 0.5
v -5.5 13 0.5
v -4.5 0 0.5
v -4.5 3 0.5
v -3.5 0 0.5
v -3.5 3 0.5
v 3.5 0 0.5
v 3.5 3 0.5
v 4.5 0 0.5
v 4.5 3 0.5
v 5.5 12 0.5
v 5.5 13 0.5
v 6.5 4 0.5
v 6.5 12 0.5
v 6.5 13 0.5
v 7.5 4 0.5
v 7.5 12 0.5
v -3.5 4 3.5
v -3.5 5 3.5
v -3.5 6 3.5
v -2.5 4 3.5
v -2.5 5 3.5
v -2.5 6 3.5
v 2.5 4 3.5
v 2.5 5 3.5
v 2.5 6 3.5
v 3.5 4 3.5
v 3.5 5 3.5
v 3.5 6 3.5
v -7.5 4 -1.5
v -7.5 12 -1.5
v -6.5 4 -1.5
v -6.5 12 -1.5
v -6.5 13 -1.5
v -5.5 12 -1.5
v -5.5 13 -1.5
v -4.5 0 -1.5
v -4.5 3 -1.5
v -3.5 0 -1.5
v -3.5 3 -1.5
v 3.5 0 -1.5
v 3.5 3 -1.5
v 4.5 0 -1.5
v 4.5 3 -1.5
v 5.5 12 -1.5
v 5.5 13 -1.5
v 6.5 4 -1.5
v 6.5 12 -1.5
v 6.5 13 -1.5
v 7.5 4 -1.5
v 7.5 12 -1.5
v -5.5 3 -3.5
v -5.5 4 -3.5
v -5.5 19 -3.5
v -5.5 20 -3.5
v -4.5 3 -3.5
v -4.5 4 -3.5
v -4.5 19 -3.5
v -4.5 20 -3.5
v -4.5 21 -3.5
v -3.5 20 -3.5
v -3.5 21 -3.5
v 3.5 20 -3.5
v 3.5 21 -3.5
v 4.5 3 -3.5
v 4.5 4 -3.5
v 4.5 19 -3.5
v 4.5 20 -3.5
v 4.5 21 -3.5
v 5.5 3 -3.5
v 5.5 4 -3.5
v 5.5 19 -3.5
v 5.5 20 -3.5
v -5.5 4 -4.5
v -5.5 19 -4.5
v -4.5 3 -4.5
v -4.5 4 -4.5
v -4.5 19 -4.5
v -4.5 20 -4.5
v -3.5 3 -4.5
v -3.5 4 -4.5
v -3.5 19 -4.5
v -3.5 20 -4.5
v -3.5 21 -4.5
v 3.5 3 -4.5
v 3.5 4 -4.5
v 3.5 19 -4.5
v 3.5 20 -4.5
v 3.5 21 -4.5
v 4.5 3 -4.5
v 4.5 4 -4.5
v 4.5 19 -4.5
v 4.5 20 -4.5
v 5.5 4 -4.5
v 5.5 19 -4.5
v -4.5 4 -5.5
v -4.5 19 -5.5
v -3.5 3 -5.5
v -3.5 4 -5.5
v -3.5 19 -5.5
v -3.5 20 -5.5
v 3.5 3 -5.5
v 3.5 4 -5.5
v 3.5 19 -5.5
v 3.5 20 -5.5
v 4.5 4 -5.5
v 4.5 19 -5.5
v -4.5 0 0.5
v -3.5 0 0.5
v 3.5 0 0.5
v 4.5 0 0.5
v -4.5 0 -1.5
v -3.5 0 -1.5
v 3.5 0 -1.5
v 4.5 0 -1.5
v -3.5 3 4.5
v 3.5 3 4.5
v -4.5 3 3.5
v -3.5 3 3.5
v 3.5 3 3.5
v 4.5 3 3.5
v -5.5 3 2.5
v -4.5 3 2.5
v 4.5 3 2.5
v 5.5 3 2.5
v -4.5 3 0.5
v -3.5 3 0.5
v 3.5 3 0.5
v 4.5 3 0.5
v -4.5 3 -1.5
v -3.5 3 -1.5
v 3.5 3 -1.5
v 4.5 3 -1.5
v -5.5 3 -3.5
v -4.5 3 -3.5
v 4.5 3 -3.5
v 5.5 3 -3.5
v -4.5 3 -4.5
v -3.5 3 -4.5
v 3.5 3 -4.5
v 4.5 3 -4.5
v -3.5 3 -5.5
v 3.5 3 -5.5
v -4.5 4 4.5
v -3.5 4 4.5
v 3.5 4 4.5
v 4.5 4 4.5
v -5.5 4 3.5
v -4.5 4 3.5
v -3.5 4 3.5
v 3.5 4 3.5
v 4.5 4 3.5
v 5.5 4 3.5
v -5.5 4 2.5
v -4.5 4 2.5
v 4.5 4 2.5
v 5.5 4 2.5
v -7.5 4 0.5
v -6.5 4 0.5
v 6.5 4 0.5
v 7.5 4 0.5
v -7.5 4 -1.5
v -6.5 4 -1.5
v 6.5 4 -1.5
v 7.5 4 -1.5
v -5.5 4 -3.5
v -4.5 4 -3.5
v 4.5 4 -3.5
v 5.5 4 -3.5
v -5.5 4 -4.5
v -4.5 4 -4.5
v -3.5 4 -4.5
v 3.5 4 -4.5
v 4.5 4 -4.5
v 5.5 4 -4.5
v -4.5 4 -5.5
v -3.5 4 -5.5
v 3.5 4 -5.5
v 4.5 4 -5.5
v -3.5 12 4.5
v 3.5 12 4.5
v -3.5 12 3.5
v 3.5 12 3.5
v -3.5 12 2.5
v 3.5 12 2.5
v -6.5 12 0.5
v -5.5 12 0.5
v 5.5 12 0.5
v 6.5 12 0.5
v -6.5 12 -1.5
v -5.5 12 -1.5
v 5.5 12 -1.5
v 6.5 12 -1.5
v -3.5 14 5.5
v -1.5 14 5.5
v 1.5 14 5.5
v 3.5 14 5.5
v -3.5 14 4.5
v -1.5 14 4.5
v 1.5 14 4.5
v 3.5 14 4.5
v -3.5 4 3.5
v -2.5 4 3.5
v 2.5 4 3.5
v 3.5 4 3.5
v -3.5 4 2.5
v -2.5 4 2.5
v 2.5 4 2.5
v 3.5 4 2.5
v -3.5 6 4.5
v -1.5 6 4.5
v 1.5 6 4.5
v 3.5 6 4.5
v -3.5 6 3.5
v -2.5 6 3.5
v -1.5 6 3.5
v 1.5 6 3.5
v 2.5 6 3.5
v 3.5 6 3.5
v -1.5 7 4.5
v 1.5 7 4.5
v -2.5 7 3.5
v -1.5 7 3.5
v 1.5 7 3.5
v 2.5 7 3.5
v -2.5 7 2.5
v -1.5 7 2.5
v 1.5 7 2.5
v 2.5 7 2.5
v -1.5 8 3.5
v 1.5 8 3.5
v -1.5 8 2.5
v 1.5 8 2.5
v -7.5 12 0.5
v -6.5 12 0.5
v 6.5 12 0.5
v 7.5 12 0.5
v -7.5 12 -1.5
v -6.5 12 -1.5
v 6.5 12 -1.5
v 7.5 12 -1.5
v -6.5 13 0.5
v -5.5 13 0.5
v 5.5 13 0.5
v 6.5 13 0.5
v -6.5 13 -1.5
v -5.5 13 -1.5
v 5.5 13 -1.5
v 6.5 13 -1.5
v -3.5 18 5.5
v -1.5 18 5.5
v 1.5 18 5.5
v 3.5 18 5.5
v -3.5 18 4.5
v -1.5 18 4.5
v 1.5 18 4.5
v 3.5 18 4.5
v -4.5 19 4.5
v -3.5 19 4.5
v 3.5 19 4.5
v 4.5 19 4.5
v -5.5 19 3.5
v -4.5 19 3.5
v -3.5 19 3.5
v 3.5 19 3.5
v 4.5 19 3.5
v 5.5 19 3.5
v -5.5 19 2.5
v -4.5 19 2.5
v 4.5 19 2.5
v 5.5 19 2.5
v -5.5 19 -3.5
v -4.5 19 -3.5
v 4.5 19 -3.5
v 5.5 19 -3.5
v -5.5 19 -4.5
v -4.5 19 -4.5
v -3.5 19 -4.5
v 3.5 19 -4.5
v 4.5 19 -4.5
v 5.5 19 -4.5
v -4.5 19 -5.5
v -3.5 19 -5.5
v 3.5 19 -5.5
v 4.5 19 -5.5
v -3.5 20 4.5
v 3.5 20 4.5
v -4.5 20 3.5
v -3.5 20 3.5
v 3.5 20 3.5
v 4.5 20 3.5
v -5.5 20 2.5
v -4.5 20 2.5
v -3.5 20 2.5
v 3.5 20 2.5
v 4.5 20 2.5
v 5.5 20 2.5
v -5.5 20 -3.5
v -4.5 20 -3.5
v -3.5 20 -3.5
v 3.5 20 -3.5
v 4.5 20 -3.5
v 5.5 20 -3.5
v -4.5 20 -4.5
v -3.5 20 -4.5
v 3.5 20 -4.5
v 4.5 20 -4.5
v -3.5 20 -5.5
v 3.5 20 -5.5
v -3.5 21 3.5
v 3.5 21 3.5
v -4.5 21 2.5
v -3.5 21 2.5
v 3.5 21 2.5
v 4.5 21 2.5
v -4.5 21 -3.5
v -3.5 21 -3.5
v 3.5 21 -3.5
v 4.5 21 -3.5
v -3.5 21 -4.5
v 3.5 21 -4.5

# faces
f 3/2/1 2/2/1 1/2/1
f 4/2/1 2/2/1 3/2/1
f 7/2/1 6/2/1 5/2/1
f 8/2/1 6/2/1 7/2/1
f 12/2/1 10/2/1 9/2/1
f 13/2/1 10/2/1 12/2/1
f 15/2/1 12/2/1 11/2/1
f 15/2/1 14/2/1 13/2/1
f 15/2/1 13/2/1 12/2/1
f 16/2/1 14/2/1 15/2/1
f 17/2/1 15/2/1 11/2/1
f 18/2/1 14/2/1 16/2/1
f 19/2/1 17/2/1 11/2/1
f 19/2/1 18/2/1 17/2/1
f 20/2/1 18/2/1 19/2/1
f 21/2/1 14/2/1 18/2/1
f 21/2/1 18/2/1 20/2/1
f 22/2/1 14/2/1 21/2/1
f 23/2/1 21/2/1 20/2/1
f 24/2/1 21/2/1 23/2/1
f 29/2/1 26/2/1 25/2/1
f 30/2/1 26/2/1 29/2/1
f 34/2/1 28/2/1 27/2/1
f 35/2/1 28/2/1 34/2/1
f 36/2/1 32/2/1 31/2/1
f 37/2/1 32/2/1 36/2/1
f 39/2/1 34/2/1 33/2/1
f 40/2/1 34/2/1 39/2/1
f 43/2/1 38/2/1 37/2/1
f 44/2/1 38/2/1 43/2/1
f 45/2/1 41/2/1 40/2/1
f 46/2/1 41/2/1 45/2/1
f 47/2/1 43/2/1 42/2/1
f 48/2/1 43/2/1 47/2/1
f 49/2/1 47/2/1 46/2/1
f 50/2/1 47/2/1 49/2/1
f 55/2/1 52/2/1 51/2/1
f 56/2/1 52/2/1 55/2/1
f 57/2/1 54/2/1 53/2/1
f 58/2/1 54/2/1 57/2/1
f 61/4/1 60/4/1 59/4/1
f 62/4/1 60/4/1 61/4/1
f 63/1/1 62/1/1 61/1/1
f 64/1/1 62/1/1 63/1/1
f 69/2/1 66/2/1 65/2/1
f 70/2/1 66/2/1 69/2/1
f 73/2/1 68/2/1 67/2/1
f 74/2/1 68/2/1 73/2/1
f 75/2/1 71/2/1 70/2/1
f 76/2/1 71/2/1 75/2/1
f 77/2/1 73/2/1 72/2/1
f 78/2/1 73/2/1 77/2/1
f 81/3/1 80/3/1 79/3/1
f 82/3/1 80/3/1 81/3/1
f 83/3/1 80/3/1 82/3/1
f 84/3/1 80/3/1 83/3/1
f 87/3/1 86/3/1 85/3/1
f 88/3/1 86/3/1 87/3/1
f 90/3/1 89/3/1 88/3/1
f 91/3/1 89/3/1 90/3/1
f 94/4/1 93/4/1 92/4/1
f 95/4/1 93/4/1 94/4/1
f 96/1/1 95/1/1 94/1/1
f 97/1/1 95/1/1 96/1/1
f 100/2/1 99/2/1 98/2/1
f 101/2/1 99/2/1 100/2/1
f 104/2/1 103/2/1 102/2/1
f 106/2/1 103/2/1 104/2/1
f 107/2/1 106/2/1 105/2/1
f 108/2/1 103/2/1 106/2/1
f 108/2/1 106/2/1 107/2/1
f 109/2/1 103/2/1 108/2/1
f 112/2/1 111/2/1 110/2/1
f 113/2/1 111/2/1 112/2/1
f 114/2/2 115/2/2 116/2/2
f 116/2/2 115/2/2 117/2/2
f 118/2/2 119/2/2 120/2/2
f 120/2/2 119/2/2 121/2/2
f 122/2/2 123/2/2 124/2/2
f 124/2/2 123/2/2 126/2/2
f 125/2/2 126/2/2 127/2/2
f 126/2/2 123/2/2 128/2/2
f 127/2/2 126/2/2 128/2/2
f 128/2/2 123/2/2 129/2/2
f 130/4/2 131/4/2 132/4/2
f 132/4/2 131/4/2 133/4/2
f 132/1/2 133/1/2 134/1/2
f 134/1/2 133/1/2 135/1/2
f 136/3/2 137/3/2 138/3/2
f 138/3/2 137/3/2 139/3/2
f 139/3/2 140/3/2 141/3/2
f 141/3/2 140/3/2 142/3/2
f 143/3/2 144/3/2 145/3/2
f 145/3/2 144/3/2 146/3/2
f 146/3/2 144/3/2 147/3/2
f 147/3/2 144/3/2 148/3/2
f 149/2/2 150/2/2 153/2/2
f 153/2/2 150/2/2 154/2/2
f 151/2/2 152/2/2 155/2/2
f 155/2/2 152/2/2 156/2/2
f 157/4/2 158/4/2 159/4/2
f 159/4/2 158/4/2 160/4/2
f 159/1/2 160/1/2 161/1/2
f 161/1/2 160/1/2 162/1/2
f 163/2/2 164/2/2 167/2/2
f 167/2/2 164/2/2 168/2/2
f 165/2/2 166/2/2 171/2/2
f 171/2/2 166/2/2 172/2/2
f 168/2/2 169/2/2 173/2/2
f 173/2/2 169/2/2 174/2/2
f 170/2/2 171/2/2 175/2/2
f 175/2/2 171/2/2 176/2/2
f 177/2/2 178/2/2 181/2/2
f 181/2/2 178/2/2 182/2/2
f 179/2/2 180/2/2 186/2/2
f 186/2/2 180/2/2 187/2/2
f 183/2/2 184/2/2 188/2/2
f 188/2/2 184/2/2 189/2/2
f 185/2/2 186/2/2 191/2/2
f 191/2/2 186/2/2 192/2/2
f 189/2/2 190/2/2 195/2/2
f 195/2/2 190/2/2 196/2/2
f 192/2/2 193/2/2 197/2/2
f 197/2/2 193/2/2 198/2/2
f 194/2/2 195/2/2 199/2/2
f 199/2/2 195/2/2 200/2/2
f 198/2/2 199/2/2 201/2/2
f 201/2/2 199/2/2 202/2/2
f 203/2/2 204/2/2 206/2/2
f 206/2/2 204/2/2 207/2/2
f 205/2/2 206/2/2 209/2/2
f 207/2/2 208/2/2 209/2/2
f 206/2/2 207/2/2 209/2/2
f 209/2/2 208/2/2 210/2/2
f 205/2/2 209/2/2 211/2/2
f 210/2/2 208/2/2 212/2/2
f 205/2/2 211/2/2 213/2/2
f 211/2/2 212/2/2 213/2/2
f 213/2/2 212/2/2 214/2/2
f 212/2/2 208/2/2 215/2/2
f 214/2/2 212/2/2 215/2/2
f 215/2/2 208/2/2 216/2/2
f 214/2/2 215/2/2 217/2/2
f 217/2/2 215/2/2 218/2/2
f 219/2/2 220/2/2 221/2/2
f 221/2/2 220/2/2 222/2/2
f 223/2/2 224/2/2 225/2/2
f 225/2/2 224/2/2 226/2/2
f 230/4/3 228/4/3 227/4/3
f 231/1/3 229/1/3 228/1/3
f 231/4/3 228/4/3 230/4/3
f 232/1/3 229/1/3 231/1/3
f 236/4/3 234/4/3 233/4/3
f 237/1/3 235/1/3 234/1/3
f 237/4/3 234/4/3 236/4/3
f 238/1/3 235/1/3 237/1/3
f 242/2/3 240/2/3 239/2/3
f 243/2/3 240/2/3 242/2/3
f 244/2/3 240/2/3 243/2/3
f 245/2/3 240/2/3 244/2/3
f 246/2/3 240/2/3 245/2/3
f 247/2/3 240/2/3 246/2/3
f 248/2/3 240/2/3 247/2/3
f 249/2/3 240/2/3 248/2/3
f 250/2/3 240/2/3 249/2/3
f 252/2/3 242/2/3 241/2/3
f 252/2/3 243/2/3 242/2/3
f 253/1/3 244/1/3 243/1/3
f 253/2/3 243/2/3 252/2/3
f 254/1/3 244/1/3 253/1/3
f 256/2/3 247/2/3 246/2/3
f 258/2/3 251/2/3 250/2/3
f 258/2/3 250/2/3 249/2/3
f 259/2/3 252/2/3 241/2/3
f 259/1/3 253/1/3 252/1/3
f 260/3/3 255/3/3 254/3/3
f 260/1/3 253/1/3 259/1/3
f 260/3/3 254/3/3 253/3/3
f 261/3/3 255/3/3 260/3/3
f 262/3/3 255/3/3 261/3/3
f 263/2/3 257/2/3 256/2/3
f 263/2/3 256/2/3 246/2/3
f 263/2/3 258/2/3 257/2/3
f 264/2/3 258/2/3 263/2/3
f 265/2/3 251/2/3 258/2/3
f 265/2/3 258/2/3 264/2/3
f 266/2/3 260/2/3 259/2/3
f 266/2/3 259/2/3 241/2/3
f 267/2/3 260/2/3 266/2/3
f 268/1/3 261/1/3 260/1/3
f 268/2/3 260/2/3 267/2/3
f 269/1/3 261/1/3 268/1/3
f 270/1/3 246/1/3 245/1/3
f 271/2/3 263/2/3 246/2/3
f 271/1/3 246/1/3 270/1/3
f 272/2/3 263/2/3 271/2/3
f 274/2/3 251/2/3 265/2/3
f 275/2/3 251/2/3 274/2/3
f 276/2/3 251/2/3 275/2/3
f 277/2/3 273/2/3 272/2/3
f 277/2/3 275/2/3 274/2/3
f 277/2/3 274/2/3 273/2/3
f 277/2/3 270/2/3 269/2/3
f 277/2/3 272/2/3 271/2/3
f 277/2/3 271/2/3 270/2/3
f 277/2/3 269/2/3 268/2/3
f 277/2/3 268/2/3 267/2/3
f 278/2/3 275/2/3 277/2/3
f 282/2/3 280/2/3 279/2/3
f 283/2/3 280/2/3 282/2/3
f 285/2/3 282/2/3 281/2/3
f 286/2/3 282/2/3 285/2/3
f 287/2/3 284/2/3 283/2/3
f 288/2/3 284/2/3 287/2/3
f 292/3/3 291/3/3 290/3/3
f 293/3/3 291/3/3 292/3/3
f 296/3/3 294/3/3 293/3/3
f 297/3/3 294/3/3 296/3/3
f 298/3/3 296/3/3 295/3/3
f 299/3/3 296/3/3 298/3/3
f 303/2/3 289/2/3 288/2/3
f 304/2/3 289/2/3 303/2/3
f 305/2/3 301/2/3 300/2/3
f 306/2/3 301/2/3 305/2/3
f 307/2/3 303/2/3 302/2/3
f 308/2/3 303/2/3 307/2/3
f 309/2/3 307/2/3 306/2/3
f 310/2/3 307/2/3 309/2/3
f 315/2/3 312/2/3 311/2/3
f 316/2/3 312/2/3 315/2/3
f 317/2/3 314/2/3 313/2/3
f 318/2/3 314/2/3 317/2/3
f 322/2/3 319/2/3 318/2/3
f 323/2/3 319/2/3 322/2/3
f 324/4/3 321/4/3 320/4/3
f 325/4/3 321/4/3 324/4/3
f 326/4/3 321/4/3 325/4/3
f 327/4/3 321/4/3 326/4/3
f 329/4/3 321/4/3 327/4/3
f 331/4/3 329/4/3 328/4/3
f 332/4/3 331/4/3 330/4/3
f 333/4/3 321/4/3 329/4/3
f 333/4/3 331/4/3 332/4/3
f 333/4/3 329/4/3 331/4/3
f 339/2/3 335/2/3 334/2/3
f 340/2/3 335/2/3 339/2/3
f 341/2/3 337/2/3 336/2/3
f 342/2/3 337/2/3 341/2/3
f 343/2/3 339/2/3 338/2/3
f 344/2/3 339/2/3 343/2/3
f 347/2/3 346/2/3 345/2/3
f 348/2/3 346/2/3 347/2/3
f 350/2/3 349/2/3 348/2/3
f 351/2/3 349/2/3 350/2/3
f 354/2/3 353/2/3 352/2/3
f 355/2/3 353/2/3 354/2/3
f 358/2/3 357/2/3 356/2/3
f 359/2/3 357/2/3 358/2/3
f 363/2/3 361/2/3 360/2/3
f 364/2/3 361/2/3 363/2/3
f 365/2/3 363/2/3 362/2/3
f 366/2/3 363/2/3 365/2/3
f 367/2/4 368/2/4 370/2/4
f 368/1/4 369/1/4 371/1/4
f 370/2/4 368/2/4 371/2/4
f 371/1/4 369/1/4 372/1/4
f 373/2/4 374/2/4 376/2/4
f 374/1/4 375/1/4 377/1/4
f 376/2/4 374/2/4 377/2/4
f 377/1/4 375/1/4 378/1/4
f 379/2/4 380/2/4 381/2/4
f 381/2/4 380/2/4 382/2/4
f 382/2/4 383/2/4 384/2/4
f 384/2/4 383/2/4 385/2/4
f 386/2/4 387/2/4 388/2/4
f 388/2/4 387/2/4 389/2/4
f 390/2/4 391/2/4 392/2/4
f 392/2/4 391/2/4 393/2/4
f 394/2/4 395/2/4 397/2/4
f 397/2/4 395/2/4 398/2/4
f 396/2/4 397/2/4 399/2/4
f 399/2/4 397/2/4 400/2/4
f 401/2/4 402/2/4 405/2/4
f 405/2/4 402/2/4 406/2/4
f 403/2/4 404/2/4 407/2/4
f 407/2/4 404/2/4 408/2/4
f 408/2/4 409/2/4 410/2/4
f 410/2/4 409/2/4 411/2/4
f 412/2/4 413/2/4 417/2/4
f 417/2/4 413/2/4 418/2/4
f 414/2/4 415/2/4 419/2/4
f 419/2/4 415/2/4 420/2/4
f 416/2/4 417/2/4 421/2/4
f 421/2/4 417/2/4 422/2/4
f 423/2/4 424/2/4 426/2/4
f 426/2/4 424/2/4 427/2/4
f 425/2/4 426/2/4 429/2/4
f 429/2/4 426/2/4 430/2/4
f 427/2/4 428/2/4 431/2/4
f 431/2/4 428/2/4 432/2/4
f 432/2/4 433/2/4 437/2/4
f 437/2/4 433/2/4 438/2/4
f 434/2/4 435/2/4 439/2/4
f 439/2/4 435/2/4 440/2/4
f 436/2/4 437/2/4 441/2/4
f 441/2/4 437/2/4 442/2/4
f 440/2/4 441/2/4 443/2/4
f 443/2/4 441/2/4 444/2/4
f 445/2/4 446/2/4 448/2/4
f 448/2/4 446/2/4 449/2/4
f 447/2/4 448/2/4 451/2/4
f 449/2/4 450/2/4 451/2/4
f 448/2/4 449/2/4 451/2/4
f 451/2/4 450/2/4 452/2/4
f 452/2/4 450/2/4 453/2/4
f 453/2/4 450/2/4 454/2/4
f 452/2/4 453/2/4 455/2/4
f 455/2/4 453/2/4 456/2/4
f 461/2/5 458/2/5 457/2/5
f 462/2/5 458/2/5 461/2/5
f 463/2/5 460/2/5 459/2/5
f 464/2/5 460/2/5 463/2/5
f 468/2/5 466/2/5 465/2/5
f 469/2/5 466/2/5 468/2/5
f 472/2/5 468/2/5 467/2/5
f 472/2/5 470/2/5 469/2/5
f 472/2/5 469/2/5 468/2/5
f 473/2/5 470/2/5 472/2/5
f 475/2/5 472/2/5 471/2/5
f 475/2/5 474/2/5 473/2/5
f 475/2/5 473/2/5 472/2/5
f 476/2/5 474/2/5 475/2/5
f 477/2/5 474/2/5 476/2/5
f 478/2/5 474/2/5 477/2/5
f 479/2/5 475/2/5 471/2/5
f 480/2/5 477/2/5 476/2/5
f 481/2/5 477/2/5 480/2/5
f 482/2/5 474/2/5 478/2/5
f 483/2/5 481/2/5 480/2/5
f 483/2/5 482/2/5 481/2/5
f 483/2/5 479/2/5 471/2/5
f 483/2/5 480/2/5 479/2/5
f 484/2/5 482/2/5 483/2/5
f 485/2/5 474/2/5 482/2/5
f 485/2/5 482/2/5 484/2/5
f 486/2/5 474/2/5 485/2/5
f 487/2/5 485/2/5 484/2/5
f 488/2/5 485/2/5 487/2/5
f 489/2/5 485/2/5 488/2/5
f 490/2/5 485/2/5 489/2/5
f 491/2/5 489/2/5 488/2/5
f 492/2/5 489/2/5 491/2/5
f 498/2/5 494/2/5 493/2/5
f 499/2/5 494/2/5 498/2/5
f 500/2/5 496/2/5 495/2/5
f 501/2/5 496/2/5 500/2/5
f 503/2/5 498/2/5 497/2/5
f 504/2/5 498/2/5 503/2/5
f 505/2/5 502/2/5 501/2/5
f 506/2/5 502/2/5 505/2/5
f 511/2/5 508/2/5 507/2/5
f 512/2/5 508/2/5 511/2/5
f 513/2/5 510/2/5 509/2/5
f 514/2/5 510/2/5 513/2/5
f 519/2/5 516/2/5 515/2/5
f 520/2/5 516/2/5 519/2/5
f 523/2/5 518/2/5 517/2/5
f 524/2/5 518/2/5 523/2/5
f 525/2/5 521/2/5 520/2/5
f 526/2/5 521/2/5 525/2/5
f 527/2/5 523/2/5 522/2/5
f 528/2/5 523/2/5 527/2/5
f 531/1/5 530/1/5 529/1/5
f 532/1/5 530/1/5 531/1/5
f 533/2/5 532/2/5 531/2/5
f 534/2/5 532/2/5 533/2/5
f 539/2/5 536/2/5 535/2/5
f 540/2/5 536/2/5 539/2/5
f 541/2/5 538/2/5 537/2/5
f 542/2/5 538/2/5 541/2/5
f 547/4/5 544/4/5 543/4/5
f 548/4/5 544/4/5 547/4/5
f 549/4/5 546/4/5 545/4/5
f 550/4/5 546/4/5 549/4/5
f 551/2/6 552/2/6 555/2/6
f 555/2/6 552/2/6 556/2/6
f 553/2/6 554/2/6 557/2/6
f 557/2/6 554/2/6 558/2/6
f 559/1/6 560/1/6 563/1/6
f 563/1/6 560/1/6 564/1/6
f 564/1/6 560/1/6 565/1/6
f 561/1/6 562/1/6 566/1/6
f 566/1/6 562/1/6 567/1/6
f 567/1/6 562/1/6 568/1/6
f 569/3/6 570/3/6 572/3/6
f 572/3/6 570/3/6 573/3/6
f 571/3/6 572/3/6 575/3/6
f 575/3/6 572/3/6 576/3/6
f 573/3/6 574/3/6 577/3/6
f 577/3/6 574/3/6 578/3/6
f 579/3/6 580/3/6 581/3/6
f 581/3/6 580/3/6 582/3/6
f 583/2/6 584/2/6 587/2/6
f 587/2/6 584/2/6 588/2/6
f 585/2/6 586/2/6 589/2/6
f 589/2/6 586/2/6 590/2/6
f 591/2/6 592/2/6 595/2/6
f 595/2/6 592/2/6 596/2/6
f 593/2/6 594/2/6 597/2/6
f 597/2/6 594/2/6 598/2/6
f 599/1/6 600/1/6 603/1/6
f 603/1/6 600/1/6 604/1/6
f 601/1/6 602/1/6 605/1/6
f 605/1/6 602/1/6 606/1/6
f 607/2/6 608/2/6 612/2/6
f 612/2/6 608/2/6 613/2/6
f 609/2/6 610/2/6 614/2/6
f 614/2/6 610/2/6 615/2/6
f 611/2/6 612/2/6 617/2/6
f 617/2/6 612/2/6 618/2/6
f 615/2/6 616/2/6 619/2/6
f 619/2/6 616/2/6 620/2/6
f 621/2/6 622/2/6 625/2/6
f 625/2/6 622/2/6 626/2/6
f 623/2/6 624/2/6 629/2/6
f 629/2/6 624/2/6 630/2/6
f 626/2/6 627/2/6 631/2/6
f 631/2/6 627/2/6 632/2/6
f 628/2/6 629/2/6 633/2/6
f 633/2/6 629/2/6 634/2/6
f 635/2/6 636/2/6 638/2/6
f 638/2/6 636/2/6 639/2/6
f 637/2/6 638/2/6 642/2/6
f 642/2/6 638/2/6 643/2/6
f 639/2/6 640/2/6 644/2/6
f 644/2/6 640/2/6 645/2/6
f 641/2/6 642/2/6 647/2/6
f 647/2/6 642/2/6 648/2/6
f 645/2/6 646/2/6 651/2/6
f 651/2/6 646/2/6 652/2/6
f 648/2/6 649/2/6 653/2/6
f 653/2/6 649/2/6 654/2/6
f 650/2/6 651/2/6 655/2/6
f 655/2/6 651/2/6 656/2/6
f 654/2/6 655/2/6 657/2/6
f 657/2/6 655/2/6 658/2/6
f 659/2/6 660/2/6 662/2/6
f 662/2/6 660/2/6 663/2/6
f 661/2/6 662/2/6 665/2/6
f 663/2/6 664/2/6 665/2/6
f 662/2/6 663/2/6 665/2/6
f 665/2/6 664/2/6 666/2/6
f 666/2/6 664/2/6 667/2/6
f 667/2/6 664/2/6 668/2/6
f 666/2/6 667/2/6 669/2/6
f 669/2/6 667/2/6 670/2/6
